<mxfile host="app.diagrams.net" modified="2023-11-30T08:12:04.408Z" agent="Mozilla/5.0 (Windows NT 10.0; Win64; x64) AppleWebKit/537.36 (KHTML, like Gecko) Chrome/109.0.0.0 Safari/537.36" version="22.1.5" etag="78O5vs5J4k8IXZIy8OdY" type="github">
  <diagram name="第 1 页" id="LAnyR6NNW8OPQIW803Qz">
    <mxGraphModel>
      <root>
        <mxCell id="0" />
        <mxCell id="1" parent="0" />
      </root>
    </mxGraphModel>
  </diagram>
</mxfile>
